# xmcd
# 
# Track frame offsets:
#	150
#	18670
#	33570
#	46753
#	58569
#	74930
#	92238
#	110733
#	126688
#	143418
#	157778
#	171960
#	187490
#	204458
#	213363
#	230068
#
# Disc length: 3282 seconds
#
# Revision: 1
# Processed by: cddbd v1.4PL0 Copyright (c) Steve Scherf et al.
# Submitted via: Audio-CD-Archiv 2.10.441
#
DISCID=f90cd010
DTITLE=Various Artist - Countrytime in Germany CD 1
DYEAR=1900
DGENRE=country
TTITLE0=Jonny Hill - Wieder mal auf Tournee
TTITLE1=Mark Bender - Verkauf nicht Deine Seele
TTITLE2=Linda Feller - Ich weiß genau was ich will
TTITLE3=Black Bottom Skiffle Group - Schöne Frauen
TTITLE4=Nashville Music Company - Tanz auf dem Vulkan
TTITLE5=Rosi Funck - Was ist schon Liebe
TTITLE6=Larry Schuba and Western Union - Wieder Unterwegs
TTITLE7=Rheinstone Cowboys - Die Rose von Bensberg
TTITLE8=Hanna and Daana - Küsse wie Feuer
TTITLE9=Abi Hoffmann - Für einen Augenblick
TTITLE10=Nashville Music Company - Rot ist unsere Liebe
TTITLE11=Jonny Hill - Und wieder zeigt dir einer einen Vogel
TTITLE12=Tex Haper - Ich war der 5. Beatle
TTITLE13=Mr. Miller - Teufelsritt
TTITLE14=Freddy Quinn - Heute Nacht, da brauch ich dich
TTITLE15=Gudrun Lange and Kactus - Mitten im Herz
EXTD=
EXTT0=
EXTT1=
EXTT2=
EXTT3=
EXTT4=
EXTT5=
EXTT6=
EXTT7=
EXTT8=
EXTT9=
EXTT10=
EXTT11=
EXTT12=
EXTT13=
EXTT14=
EXTT15=
PLAYORDER=
